# Alias OBJ Model File
# Exported from SketchUp, (c) 2000-2012 Trimble Navigation Limited
# File units = meters

mtllib 180701-01.mtl

g Mesh1 Model

usemtl FrontColor
v 11.79 4 -0
vt 464.173 -6.73529e-15
vn 6.6543e-17 1 -4.27691e-17
v 11.79 4 -3.79721
vt 464.173 149.496
v 18.74 4 -3.79721
vt 737.795 149.496
v 18.74 4 -11.79
vt 737.795 464.173
v 0 4 -11.79
vt -1.04792e-14 464.173
v 0 4 -0
vt -1.04792e-14 -6.73529e-15
f 1/1/1 2/2/1 3/3/1 4/4/1 5/5/1 6/6/1 

usemtl _1
vt 5.73509e-14 157.48
vn 1 1.21226e-16 1.23555e-16
vt 149.496 157.48
v 11.79 12.0274 -3.79721
vt 149.496 473.521
v 11.79 12.0274 -11.79
vt 464.173 473.521
v 11.79 15.08 -11.79
vt 464.173 593.701
v 11.79 15.08 -0
vt 5.73509e-14 593.701
f 1/7/2 2/8/2 7/9/2 8/10/2 9/11/2 10/12/2 

usemtl _2
vt 464.173 -1.43938e-15
vn 1.55726e-17 1 -9.14007e-18
v 55.7 4 -0
vt 2192.91 -1.43938e-15
v 55.7 4 -72.98
vt 2192.91 2873.23
v 0 4 -72.98
vt -2.45238e-15 2873.23
vt -2.45238e-15 464.173
f 1/13/3 11/14/3 12/15/3 13/16/3 5/17/3 4/4/3 3/3/3 2/2/3 

v 0 0 -0
vt 0 0
vn 0 0 1
v 55.7 0 -0
vt 2192.91 0
vt 2192.91 157.48
vt 464.173 157.48
vt 0 157.48
f 14/18/4 15/19/4 11/20/4 1/21/4 6/22/4 

usemtl FrontColor
v 55.7 0 -72.98
vt -2192.91 2873.23
vn 0 -1 -0
vt -2192.91 0
v 0 0 -72.98
vt 0 2873.23
f 16/23/5 15/24/5 14/18/5 17/25/5 

usemtl _2
vn 1 0 -0
vt 2873.23 0
vt 2873.23 157.48
f 15/18/6 16/26/6 12/27/6 11/22/6 

vn 0 0 -1
vt -2192.91 157.48
f 16/24/7 17/18/7 13/22/7 12/28/7 

vt -2873.23 0
vn -1 0 -0
vt -464.173 157.48
vt -2873.23 157.48
f 17/29/8 14/18/8 6/22/8 5/30/8 13/31/8 

usemtl _1
v 0 15.08 -0
vt 0 593.701
v 0 15.08 -11.79
vt -464.173 593.701
f 5/30/8 6/22/8 18/32/8 19/33/8 

f 6/22/4 1/21/4 10/11/4 18/32/4 

vt 464.173 0
vn 0 1 -0
vt 464.173 464.173
vt 0 464.173
f 10/34/9 9/35/9 19/36/9 18/18/9 

vt -737.795 157.48
vt -464.173 473.521
v 18.74 12.0274 -11.79
vt -737.795 473.521
f 4/37/7 5/22/7 19/32/7 9/33/7 8/38/7 20/39/7 

v 18.74 12.0274 -3.79721
f 8/35/9 7/2/9 21/3/9 20/4/9 

vt 737.795 157.48
vt 737.795 473.521
f 7/10/4 2/21/4 3/40/4 21/41/4 

vn 1 -3.59722e-16 -3.61281e-16
f 4/21/10 20/10/10 21/9/10 3/8/10 

